<mxfile host="drawio-plugin" modified="2023-02-21T11:36:56.609Z" agent="5.0 (Windows NT 6.2; Win64; x64) AppleWebKit/537.36 (KHTML, like Gecko) Chrome/104.0.5112.102 Safari/537.36" etag="r_QMrL5hk62-CBMDAHY-" version="20.5.3" type="embed" pages="2"><diagram id="C5RBs43oDa-KdzZeNtuy" name="Page-1"><mxGraphModel dx="177" dy="400" grid="1" gridSize="10" guides="1" tooltips="1" connect="1" arrows="1" fold="1" page="1" pageScale="1" pageWidth="827" pageHeight="1169" math="0" shadow="0"><root><mxCell id="WIyWlLk6GJQsqaUBKTNV-0"/><mxCell id="WIyWlLk6GJQsqaUBKTNV-1" parent="WIyWlLk6GJQsqaUBKTNV-0"/><mxCell id="zkfFHV4jXpPFQw0GAbJ--0" value="&lt;&lt;IPublisher&gt;&gt;" style="swimlane;fontStyle=2;align=center;verticalAlign=top;childLayout=stackLayout;horizontal=1;startSize=26;horizontalStack=0;resizeParent=1;resizeLast=0;collapsible=1;marginBottom=0;rounded=0;shadow=0;strokeWidth=1;" parent="WIyWlLk6GJQsqaUBKTNV-1" vertex="1"><mxGeometry x="10" y="10" width="330" height="336" as="geometry"><mxRectangle x="230" y="140" width="160" height="26" as="alternateBounds"/></mxGeometry></mxCell><mxCell id="zkfFHV4jXpPFQw0GAbJ--1" value="&lt;&lt;Vir&gt;&gt; ~IPublisher()  noexcept" style="text;align=left;verticalAlign=top;spacingLeft=4;spacingRight=4;overflow=hidden;rotatable=0;points=[[0,0.5],[1,0.5]];portConstraint=eastwest;" parent="zkfFHV4jXpPFQw0GAbJ--0" vertex="1"><mxGeometry y="26" width="330" height="26" as="geometry"/></mxCell><mxCell id="zkfFHV4jXpPFQw0GAbJ--2" value="&lt;&lt;Vir&gt;&gt; void Execute() noexcept(false)" style="text;align=left;verticalAlign=top;spacingLeft=4;spacingRight=4;overflow=hidden;rotatable=0;points=[[0,0.5],[1,0.5]];portConstraint=eastwest;rounded=0;shadow=0;html=0;" parent="zkfFHV4jXpPFQw0GAbJ--0" vertex="1"><mxGeometry y="52" width="330" height="26" as="geometry"/></mxCell><mxCell id="zkfFHV4jXpPFQw0GAbJ--3" value="&lt;&lt;Vir&gt;&gt; void RegisterSub(Type, sockaddr_in )&#10;noexcept(false) " style="text;align=left;verticalAlign=top;spacingLeft=4;spacingRight=4;overflow=hidden;rotatable=0;points=[[0,0.5],[1,0.5]];portConstraint=eastwest;rounded=0;shadow=0;html=0;" parent="zkfFHV4jXpPFQw0GAbJ--0" vertex="1"><mxGeometry y="78" width="330" height="52" as="geometry"/></mxCell><mxCell id="PoIpORjBmm5QQqAlkbBx-0" value="&lt;&lt;Vir&gt;&gt; void UnRegisterSub(Type, sockaddr_in )&#10;noexcept(false)" style="text;align=left;verticalAlign=top;spacingLeft=4;spacingRight=4;overflow=hidden;rotatable=0;points=[[0,0.5],[1,0.5]];portConstraint=eastwest;rounded=0;shadow=0;html=0;" parent="zkfFHV4jXpPFQw0GAbJ--0" vertex="1"><mxGeometry y="130" width="330" height="52" as="geometry"/></mxCell><mxCell id="PoIpORjBmm5QQqAlkbBx-1" value="&lt;&lt;Vir&gt;&gt; void NotifyShape(Type, size&#10;                                           lat,&#10;                                           longitude&#10;                                           altitude  )&#10;const noexcept(false)" style="text;align=left;verticalAlign=top;spacingLeft=4;spacingRight=4;overflow=hidden;rotatable=0;points=[[0,0.5],[1,0.5]];portConstraint=eastwest;rounded=0;shadow=0;html=0;" parent="zkfFHV4jXpPFQw0GAbJ--0" vertex="1"><mxGeometry y="182" width="330" height="78" as="geometry"/></mxCell><mxCell id="zkfFHV4jXpPFQw0GAbJ--4" value="" style="line;html=1;strokeWidth=1;align=left;verticalAlign=middle;spacingTop=-1;spacingLeft=3;spacingRight=3;rotatable=0;labelPosition=right;points=[];portConstraint=eastwest;" parent="zkfFHV4jXpPFQw0GAbJ--0" vertex="1"><mxGeometry y="260" width="330" height="76" as="geometry"/></mxCell><mxCell id="PoIpORjBmm5QQqAlkbBx-2" value="Publisher" style="swimlane;fontStyle=2;align=center;verticalAlign=top;childLayout=stackLayout;horizontal=1;startSize=26;horizontalStack=0;resizeParent=1;resizeLast=0;collapsible=1;marginBottom=0;rounded=0;shadow=0;strokeWidth=1;" parent="WIyWlLk6GJQsqaUBKTNV-1" vertex="1"><mxGeometry x="10" y="400" width="330" height="240" as="geometry"><mxRectangle x="50" y="400" width="160" height="26" as="alternateBounds"/></mxGeometry></mxCell><mxCell id="PoIpORjBmm5QQqAlkbBx-11" value="+ Publisher(const int publisher_portNum) noexcept(false)&#10;+ ~Publisher() noexcept;" style="text;align=left;verticalAlign=top;spacingLeft=4;spacingRight=4;overflow=hidden;rotatable=0;points=[[0,0.5],[1,0.5]];portConstraint=eastwest;" parent="PoIpORjBmm5QQqAlkbBx-2" vertex="1"><mxGeometry y="26" width="330" height="34" as="geometry"/></mxCell><mxCell id="PoIpORjBmm5QQqAlkbBx-8" value="" style="line;html=1;strokeWidth=1;align=left;verticalAlign=middle;spacingTop=-1;spacingLeft=3;spacingRight=3;rotatable=0;labelPosition=right;points=[];portConstraint=eastwest;" parent="PoIpORjBmm5QQqAlkbBx-2" vertex="1"><mxGeometry y="60" width="330" height="48" as="geometry"/></mxCell><mxCell id="PoIpORjBmm5QQqAlkbBx-14" value="- std::unordered_map&lt;Shape::Type, &#10;                                  std::list&lt;sockaddr_in&gt;&gt; m_subMap;&#10;- bool m_isRunning;&#10;- int m_sockFd;&#10;- sockaddr_in m_publisherAddress;&#10;- const int m_publisherPortNum;&#10;- std::shared_ptr&lt;std::thread&gt; m_thread;&#10;- void RunTask();" style="text;align=left;verticalAlign=top;spacingLeft=4;spacingRight=4;overflow=hidden;rotatable=0;points=[[0,0.5],[1,0.5]];portConstraint=eastwest;" parent="PoIpORjBmm5QQqAlkbBx-2" vertex="1"><mxGeometry y="108" width="330" height="132" as="geometry"/></mxCell><mxCell id="PoIpORjBmm5QQqAlkbBx-18" value="" style="endArrow=block;dashed=1;endFill=0;endSize=12;html=1;rounded=0;exitX=0.479;exitY=0.009;exitDx=0;exitDy=0;exitPerimeter=0;" parent="WIyWlLk6GJQsqaUBKTNV-1" source="PoIpORjBmm5QQqAlkbBx-2" edge="1"><mxGeometry width="160" relative="1" as="geometry"><mxPoint x="250" y="400" as="sourcePoint"/><mxPoint x="170" y="350" as="targetPoint"/></mxGeometry></mxCell><mxCell id="PoIpORjBmm5QQqAlkbBx-24" value="&lt;&lt;ISubscribe&gt;&gt;" style="swimlane;fontStyle=2;align=center;verticalAlign=top;childLayout=stackLayout;horizontal=1;startSize=26;horizontalStack=0;resizeParent=1;resizeLast=0;collapsible=1;marginBottom=0;rounded=0;shadow=0;strokeWidth=1;" parent="WIyWlLk6GJQsqaUBKTNV-1" vertex="1"><mxGeometry x="400" y="20" width="400" height="130" as="geometry"><mxRectangle x="230" y="140" width="160" height="26" as="alternateBounds"/></mxGeometry></mxCell><mxCell id="PoIpORjBmm5QQqAlkbBx-25" value="&lt;&lt;Vir&gt;&gt; ~ISubscribe() noexcept" style="text;align=left;verticalAlign=top;spacingLeft=4;spacingRight=4;overflow=hidden;rotatable=0;points=[[0,0.5],[1,0.5]];portConstraint=eastwest;" parent="PoIpORjBmm5QQqAlkbBx-24" vertex="1"><mxGeometry y="26" width="400" height="26" as="geometry"/></mxCell><mxCell id="PoIpORjBmm5QQqAlkbBx-26" value="&lt;&lt;Vir&gt;&gt;  void Subscribe(const int publisher_port_num) noexcept(false)" style="text;align=left;verticalAlign=top;spacingLeft=4;spacingRight=4;overflow=hidden;rotatable=0;points=[[0,0.5],[1,0.5]];portConstraint=eastwest;rounded=0;shadow=0;html=0;" parent="PoIpORjBmm5QQqAlkbBx-24" vertex="1"><mxGeometry y="52" width="400" height="26" as="geometry"/></mxCell><mxCell id="PoIpORjBmm5QQqAlkbBx-27" value="&lt;&lt;Vir&gt;&gt; void UnSubscribe() noexcept(false)" style="text;align=left;verticalAlign=top;spacingLeft=4;spacingRight=4;overflow=hidden;rotatable=0;points=[[0,0.5],[1,0.5]];portConstraint=eastwest;rounded=0;shadow=0;html=0;" parent="PoIpORjBmm5QQqAlkbBx-24" vertex="1"><mxGeometry y="78" width="400" height="32" as="geometry"/></mxCell><mxCell id="PoIpORjBmm5QQqAlkbBx-31" value="Subscriber" style="swimlane;fontStyle=2;align=center;verticalAlign=top;childLayout=stackLayout;horizontal=1;startSize=26;horizontalStack=0;resizeParent=1;resizeLast=0;collapsible=1;marginBottom=0;rounded=0;shadow=0;strokeWidth=1;" parent="WIyWlLk6GJQsqaUBKTNV-1" vertex="1"><mxGeometry x="410" y="240" width="390" height="240" as="geometry"><mxRectangle x="50" y="400" width="160" height="26" as="alternateBounds"/></mxGeometry></mxCell><mxCell id="PoIpORjBmm5QQqAlkbBx-32" value="+ Subscriber(std::list&lt;Shape::Type&gt; type,&#10;  const int subscriber_portNum) noexcept(false)" style="text;align=left;verticalAlign=top;spacingLeft=4;spacingRight=4;overflow=hidden;rotatable=0;points=[[0,0.5],[1,0.5]];portConstraint=eastwest;" parent="PoIpORjBmm5QQqAlkbBx-31" vertex="1"><mxGeometry y="26" width="390" height="44" as="geometry"/></mxCell><mxCell id="PoIpORjBmm5QQqAlkbBx-40" value="+ ~Subscriber()" style="text;align=left;verticalAlign=top;spacingLeft=4;spacingRight=4;overflow=hidden;rotatable=0;points=[[0,0.5],[1,0.5]];portConstraint=eastwest;" parent="PoIpORjBmm5QQqAlkbBx-31" vertex="1"><mxGeometry y="70" width="390" height="20" as="geometry"/></mxCell><mxCell id="PoIpORjBmm5QQqAlkbBx-33" value="" style="line;html=1;strokeWidth=1;align=left;verticalAlign=middle;spacingTop=-1;spacingLeft=3;spacingRight=3;rotatable=0;labelPosition=right;points=[];portConstraint=eastwest;" parent="PoIpORjBmm5QQqAlkbBx-31" vertex="1"><mxGeometry y="90" width="390" height="30" as="geometry"/></mxCell><mxCell id="PoIpORjBmm5QQqAlkbBx-34" value="- const std::list&lt;Shape::Type&gt; m_shapeTypes;&#10;- const int m_subscriberPort;&#10;- bool m_subIsRunning;&#10;- sockaddr_in m_publisherAddress;&#10;- int m_sock;&#10;- std::shared_ptr&lt;std::thread&gt; m_thread;&#10;- void RunTask();" style="text;align=left;verticalAlign=top;spacingLeft=4;spacingRight=4;overflow=hidden;rotatable=0;points=[[0,0.5],[1,0.5]];portConstraint=eastwest;" parent="PoIpORjBmm5QQqAlkbBx-31" vertex="1"><mxGeometry y="120" width="390" height="120" as="geometry"/></mxCell><mxCell id="PoIpORjBmm5QQqAlkbBx-39" value="" style="endArrow=block;dashed=1;endFill=0;endSize=12;html=1;rounded=0;" parent="WIyWlLk6GJQsqaUBKTNV-1" edge="1"><mxGeometry width="160" relative="1" as="geometry"><mxPoint x="550" y="240" as="sourcePoint"/><mxPoint x="550" y="150" as="targetPoint"/></mxGeometry></mxCell><mxCell id="PoIpORjBmm5QQqAlkbBx-42" value="Shape" style="swimlane;fontStyle=2;align=center;verticalAlign=top;childLayout=stackLayout;horizontal=1;startSize=26;horizontalStack=0;resizeParent=1;resizeLast=0;collapsible=1;marginBottom=0;rounded=0;shadow=0;strokeWidth=1;" parent="WIyWlLk6GJQsqaUBKTNV-1" vertex="1"><mxGeometry x="480" y="560" width="320" height="336" as="geometry"><mxRectangle x="230" y="140" width="160" height="26" as="alternateBounds"/></mxGeometry></mxCell><mxCell id="PoIpORjBmm5QQqAlkbBx-43" value="+ Shape(Type type, size_t size,&#10;                             double lat, double longi,&#10;                             double altitude)&#10;+ Type getType() const;&#10;+ size_t GetSize() const;&#10;+ double GetLongitude() const;&#10;+ double GetAltitude() const;&#10;+ double GetLatitude() const;&#10;+ std::string getColor() const;" style="text;align=left;verticalAlign=top;spacingLeft=4;spacingRight=4;overflow=hidden;rotatable=0;points=[[0,0.5],[1,0.5]];portConstraint=eastwest;" parent="PoIpORjBmm5QQqAlkbBx-42" vertex="1"><mxGeometry y="26" width="320" height="134" as="geometry"/></mxCell><mxCell id="PoIpORjBmm5QQqAlkbBx-48" value="" style="line;html=1;strokeWidth=1;align=left;verticalAlign=middle;spacingTop=-1;spacingLeft=3;spacingRight=3;rotatable=0;labelPosition=right;points=[];portConstraint=eastwest;" parent="PoIpORjBmm5QQqAlkbBx-42" vertex="1"><mxGeometry y="160" width="320" height="16" as="geometry"/></mxCell><mxCell id="PoIpORjBmm5QQqAlkbBx-49" value="- Type m_type;&#10;- size_t m_size;&#10;- double m_longitude;&#10;- double m_latitude;&#10;- double m_altitude;&#10;- std::string m_color;&#10;- static std::unordered_map&lt;Type, &#10;                                            std::string&gt; m_colorsMap" style="text;align=left;verticalAlign=top;spacingLeft=4;spacingRight=4;overflow=hidden;rotatable=0;points=[[0,0.5],[1,0.5]];portConstraint=eastwest;" parent="PoIpORjBmm5QQqAlkbBx-42" vertex="1"><mxGeometry y="176" width="320" height="134" as="geometry"/></mxCell><mxCell id="PoIpORjBmm5QQqAlkbBx-50" value="Publisher" style="rounded=1;whiteSpace=wrap;html=1;" parent="WIyWlLk6GJQsqaUBKTNV-1" vertex="1"><mxGeometry x="40" y="836" width="120" height="60" as="geometry"/></mxCell><mxCell id="PoIpORjBmm5QQqAlkbBx-51" value="MultiShape&amp;nbsp;&lt;br&gt;Subscriber" style="rounded=1;whiteSpace=wrap;html=1;" parent="WIyWlLk6GJQsqaUBKTNV-1" vertex="1"><mxGeometry x="300" y="698" width="120" height="60" as="geometry"/></mxCell><mxCell id="PoIpORjBmm5QQqAlkbBx-52" value="One-Shape&lt;br&gt;Subscriber" style="rounded=1;whiteSpace=wrap;html=1;" parent="WIyWlLk6GJQsqaUBKTNV-1" vertex="1"><mxGeometry x="300" y="950" width="120" height="60" as="geometry"/></mxCell><mxCell id="PoIpORjBmm5QQqAlkbBx-53" value="" style="endArrow=classic;html=1;rounded=0;entryX=0;entryY=1;entryDx=0;entryDy=0;" parent="WIyWlLk6GJQsqaUBKTNV-1" source="PoIpORjBmm5QQqAlkbBx-50" target="PoIpORjBmm5QQqAlkbBx-51" edge="1"><mxGeometry width="50" height="50" relative="1" as="geometry"><mxPoint x="280" y="820" as="sourcePoint"/><mxPoint x="330" y="770" as="targetPoint"/></mxGeometry></mxCell><mxCell id="PoIpORjBmm5QQqAlkbBx-54" value="" style="endArrow=classic;html=1;rounded=0;exitX=1;exitY=1;exitDx=0;exitDy=0;entryX=0;entryY=0.25;entryDx=0;entryDy=0;" parent="WIyWlLk6GJQsqaUBKTNV-1" source="PoIpORjBmm5QQqAlkbBx-50" target="PoIpORjBmm5QQqAlkbBx-52" edge="1"><mxGeometry width="50" height="50" relative="1" as="geometry"><mxPoint x="170" y="846" as="sourcePoint"/><mxPoint x="310" y="768" as="targetPoint"/></mxGeometry></mxCell><mxCell id="PoIpORjBmm5QQqAlkbBx-55" value="" style="whiteSpace=wrap;html=1;aspect=fixed;fillColor=#80FF00;" parent="WIyWlLk6GJQsqaUBKTNV-1" vertex="1"><mxGeometry x="150" y="790" width="30" height="30" as="geometry"/></mxCell><mxCell id="PoIpORjBmm5QQqAlkbBx-57" value="" style="whiteSpace=wrap;html=1;aspect=fixed;fillColor=#80FF00;" parent="WIyWlLk6GJQsqaUBKTNV-1" vertex="1"><mxGeometry x="200" y="760" width="30" height="30" as="geometry"/></mxCell><mxCell id="PoIpORjBmm5QQqAlkbBx-58" value="" style="whiteSpace=wrap;html=1;aspect=fixed;fillColor=#80FF00;" parent="WIyWlLk6GJQsqaUBKTNV-1" vertex="1"><mxGeometry x="250" y="730" width="30" height="30" as="geometry"/></mxCell><mxCell id="PoIpORjBmm5QQqAlkbBx-59" value="" style="ellipse;whiteSpace=wrap;html=1;aspect=fixed;fillColor=#007FFF;" parent="WIyWlLk6GJQsqaUBKTNV-1" vertex="1"><mxGeometry x="180" y="830" width="30" height="30" as="geometry"/></mxCell><mxCell id="PoIpORjBmm5QQqAlkbBx-62" value="" style="ellipse;whiteSpace=wrap;html=1;aspect=fixed;fillColor=#007FFF;" parent="WIyWlLk6GJQsqaUBKTNV-1" vertex="1"><mxGeometry x="220" y="806" width="30" height="30" as="geometry"/></mxCell><mxCell id="PoIpORjBmm5QQqAlkbBx-63" value="" style="ellipse;whiteSpace=wrap;html=1;aspect=fixed;fillColor=#007FFF;" parent="WIyWlLk6GJQsqaUBKTNV-1" vertex="1"><mxGeometry x="260" y="776" width="30" height="30" as="geometry"/></mxCell><mxCell id="PoIpORjBmm5QQqAlkbBx-64" value="" style="ellipse;whiteSpace=wrap;html=1;aspect=fixed;fillColor=#007FFF;" parent="WIyWlLk6GJQsqaUBKTNV-1" vertex="1"><mxGeometry x="190" y="880" width="30" height="30" as="geometry"/></mxCell><mxCell id="PoIpORjBmm5QQqAlkbBx-65" value="" style="ellipse;whiteSpace=wrap;html=1;aspect=fixed;fillColor=#007FFF;" parent="WIyWlLk6GJQsqaUBKTNV-1" vertex="1"><mxGeometry x="230" y="896" width="30" height="30" as="geometry"/></mxCell><mxCell id="PoIpORjBmm5QQqAlkbBx-66" value="" style="ellipse;whiteSpace=wrap;html=1;aspect=fixed;fillColor=#007FFF;" parent="WIyWlLk6GJQsqaUBKTNV-1" vertex="1"><mxGeometry x="270" y="920" width="30" height="30" as="geometry"/></mxCell><mxCell id="1hvBb7qcCGaiS0kuRBSW-1" value="MultiShape&amp;nbsp;&lt;br&gt;Subscriber" style="rounded=1;whiteSpace=wrap;html=1;" parent="WIyWlLk6GJQsqaUBKTNV-1" vertex="1"><mxGeometry x="300" y="715" width="120" height="60" as="geometry"/></mxCell><mxCell id="1hvBb7qcCGaiS0kuRBSW-2" value="MultiShape&amp;nbsp;&lt;br&gt;Subscriber" style="rounded=1;whiteSpace=wrap;html=1;" parent="WIyWlLk6GJQsqaUBKTNV-1" vertex="1"><mxGeometry x="300" y="730" width="120" height="60" as="geometry"/></mxCell><mxCell id="1hvBb7qcCGaiS0kuRBSW-3" value="One-Shape&lt;br&gt;Subscriber" style="rounded=1;whiteSpace=wrap;html=1;" parent="WIyWlLk6GJQsqaUBKTNV-1" vertex="1"><mxGeometry x="300" y="940" width="120" height="60" as="geometry"/></mxCell></root></mxGraphModel></diagram><diagram id="wBPnnB51_FwefrglJmo8" name="‫עמוד-2‬"><mxGraphModel dx="253" dy="571" grid="1" gridSize="10" guides="1" tooltips="1" connect="1" arrows="1" fold="1" page="1" pageScale="1" pageWidth="827" pageHeight="1169" math="0" shadow="0"><root><mxCell id="0"/><mxCell id="1" parent="0"/><mxCell id="sE2JP8XzSQdig-Y6XZG4-1" value="&lt;&lt;IPublisher&gt;&gt;" style="swimlane;fontStyle=2;align=center;verticalAlign=top;childLayout=stackLayout;horizontal=1;startSize=26;horizontalStack=0;resizeParent=1;resizeLast=0;collapsible=1;marginBottom=0;rounded=0;shadow=0;strokeWidth=1;" parent="1" vertex="1"><mxGeometry x="10" y="10" width="330" height="336" as="geometry"><mxRectangle x="230" y="140" width="160" height="26" as="alternateBounds"/></mxGeometry></mxCell><mxCell id="sE2JP8XzSQdig-Y6XZG4-3" value="+ execute(): None&#10;+ register_sub(self, type: Type[Shape],&#10;                        addr: socket.sockaddr): None&#10;&#10;+unregister_sub(self, type: Type[Shape],&#10;                        addr: socket.sockaddr): None&#10;&#10;+ notify_shape(self, type: Type[Shape],&#10;                         size: int, lat: float,&#10;                                         longi: float , alt: float): None&#10;" style="text;align=left;verticalAlign=top;spacingLeft=4;spacingRight=4;overflow=hidden;rotatable=0;points=[[0,0.5],[1,0.5]];portConstraint=eastwest;rounded=0;shadow=0;html=0;fontSize=15;" parent="sE2JP8XzSQdig-Y6XZG4-1" vertex="1"><mxGeometry y="26" width="330" height="234" as="geometry"/></mxCell><mxCell id="sE2JP8XzSQdig-Y6XZG4-7" value="" style="line;html=1;strokeWidth=1;align=left;verticalAlign=middle;spacingTop=-1;spacingLeft=3;spacingRight=3;rotatable=0;labelPosition=right;points=[];portConstraint=eastwest;" parent="sE2JP8XzSQdig-Y6XZG4-1" vertex="1"><mxGeometry y="260" width="330" height="46" as="geometry"/></mxCell><mxCell id="sE2JP8XzSQdig-Y6XZG4-8" value="Publisher-under Udp" style="swimlane;fontStyle=2;align=center;verticalAlign=top;childLayout=stackLayout;horizontal=1;startSize=26;horizontalStack=0;resizeParent=1;resizeLast=0;collapsible=1;marginBottom=0;rounded=0;shadow=0;strokeWidth=1;" parent="1" vertex="1"><mxGeometry x="10" y="400" width="330" height="308" as="geometry"><mxRectangle x="50" y="400" width="160" height="26" as="alternateBounds"/></mxGeometry></mxCell><mxCell id="sE2JP8XzSQdig-Y6XZG4-9" value="+ Publisher(self, publisher_port_num: int) : None&#10;+ ~Publisher(): None" style="text;align=left;verticalAlign=top;spacingLeft=4;spacingRight=4;overflow=hidden;rotatable=0;points=[[0,0.5],[1,0.5]];portConstraint=eastwest;fontSize=14;" parent="sE2JP8XzSQdig-Y6XZG4-8" vertex="1"><mxGeometry y="26" width="330" height="44" as="geometry"/></mxCell><mxCell id="sE2JP8XzSQdig-Y6XZG4-10" value="" style="line;html=1;strokeWidth=1;align=left;verticalAlign=middle;spacingTop=-1;spacingLeft=3;spacingRight=3;rotatable=0;labelPosition=right;points=[];portConstraint=eastwest;" parent="sE2JP8XzSQdig-Y6XZG4-8" vertex="1"><mxGeometry y="70" width="330" height="78" as="geometry"/></mxCell><mxCell id="sE2JP8XzSQdig-Y6XZG4-11" value="- std::unordered_map&lt;Shape::Type, &#10;                                  std::list&lt;sockaddr_in&gt;&gt; m_subMap;&#10;- _is_running: bool&#10;- _sock_fd: socket&#10;- _publisher_address: typle[str, int]&#10;- _publisher_port_num:int &#10;- _thread: threading&#10;- get_request():void" style="text;align=left;verticalAlign=top;spacingLeft=4;spacingRight=4;overflow=hidden;rotatable=0;points=[[0,0.5],[1,0.5]];portConstraint=eastwest;fontSize=14;" parent="sE2JP8XzSQdig-Y6XZG4-8" vertex="1"><mxGeometry y="148" width="330" height="160" as="geometry"/></mxCell><mxCell id="DxbEWhPjy-FyNuFSrDi3-1" value="" style="endArrow=block;dashed=1;endFill=0;endSize=12;html=1;rounded=0;exitX=0.479;exitY=0.009;exitDx=0;exitDy=0;exitPerimeter=0;" parent="1" edge="1"><mxGeometry width="160" relative="1" as="geometry"><mxPoint x="168" y="402" as="sourcePoint"/><mxPoint x="168" y="350" as="targetPoint"/></mxGeometry></mxCell><mxCell id="ab8tCeWJCv6JWftGLfgv-1" value="Shape" style="swimlane;fontStyle=2;align=center;verticalAlign=top;childLayout=stackLayout;horizontal=1;startSize=26;horizontalStack=0;resizeParent=1;resizeLast=0;collapsible=1;marginBottom=0;rounded=0;shadow=0;strokeWidth=1;labelBackgroundColor=none;" parent="1" vertex="1"><mxGeometry x="440" y="480" width="360" height="290" as="geometry"><mxRectangle x="230" y="140" width="160" height="26" as="alternateBounds"/></mxGeometry></mxCell><mxCell id="ab8tCeWJCv6JWftGLfgv-2" value="+ Shape(self, type_: Type,&#10;              size: int, &#10;              lat: float,&#10;              longt: float,&#10;             altitude: float) : None&#10;+ get_type() :Type &#10;+ get_size() : int&#10;+ get_longitude(): float&#10;+ get_altitudo(): float&#10;+ get_latitude(): float&#10;+ get_color() : string&#10;- colors_map: Dict[Type, str]&#10;&#10;" style="text;align=left;verticalAlign=top;spacingLeft=4;spacingRight=4;overflow=hidden;rotatable=0;points=[[0,0.5],[1,0.5]];portConstraint=eastwest;fontSize=15;" parent="ab8tCeWJCv6JWftGLfgv-1" vertex="1"><mxGeometry y="26" width="360" height="224" as="geometry"/></mxCell><mxCell id="ab8tCeWJCv6JWftGLfgv-3" value="" style="line;html=1;strokeWidth=1;align=left;verticalAlign=middle;spacingTop=-1;spacingLeft=3;spacingRight=3;rotatable=0;labelPosition=right;points=[];portConstraint=eastwest;" parent="ab8tCeWJCv6JWftGLfgv-1" vertex="1"><mxGeometry y="250" width="360" height="40" as="geometry"/></mxCell><mxCell id="ab8tCeWJCv6JWftGLfgv-10" value="" style="edgeStyle=orthogonalEdgeStyle;rounded=0;orthogonalLoop=1;jettySize=auto;html=1;endArrow=diamond;endFill=1;entryX=1;entryY=0.761;entryDx=0;entryDy=0;entryPerimeter=0;" parent="1" source="ab8tCeWJCv6JWftGLfgv-5" target="ab8tCeWJCv6JWftGLfgv-2" edge="1"><mxGeometry relative="1" as="geometry"><mxPoint x="800" y="803" as="targetPoint"/></mxGeometry></mxCell><mxCell id="ab8tCeWJCv6JWftGLfgv-5" value="Type(enum)" style="swimlane;fontStyle=2;align=center;verticalAlign=top;childLayout=stackLayout;horizontal=1;startSize=26;horizontalStack=0;resizeParent=1;resizeLast=0;collapsible=1;marginBottom=0;rounded=0;shadow=0;strokeWidth=1;" parent="1" vertex="1"><mxGeometry x="480" y="960" width="320" height="86" as="geometry"><mxRectangle x="230" y="140" width="160" height="26" as="alternateBounds"/></mxGeometry></mxCell><mxCell id="ab8tCeWJCv6JWftGLfgv-6" value="CIRCLE &#10;SQUARE" style="text;align=left;verticalAlign=top;spacingLeft=4;spacingRight=4;overflow=hidden;rotatable=0;points=[[0,0.5],[1,0.5]];portConstraint=eastwest;" parent="ab8tCeWJCv6JWftGLfgv-5" vertex="1"><mxGeometry y="26" width="320" height="44" as="geometry"/></mxCell><mxCell id="ab8tCeWJCv6JWftGLfgv-7" value="" style="line;html=1;strokeWidth=1;align=left;verticalAlign=middle;spacingTop=-1;spacingLeft=3;spacingRight=3;rotatable=0;labelPosition=right;points=[];portConstraint=eastwest;" parent="ab8tCeWJCv6JWftGLfgv-5" vertex="1"><mxGeometry y="70" width="320" height="16" as="geometry"/></mxCell><mxCell id="aNG9JFLx2jUI2PPea5CB-1" value="&lt;&lt;ISubscribe&gt;&gt;" style="swimlane;fontStyle=2;align=center;verticalAlign=top;childLayout=stackLayout;horizontal=1;startSize=26;horizontalStack=0;resizeParent=1;resizeLast=0;collapsible=1;marginBottom=0;rounded=0;shadow=0;strokeWidth=1;" parent="1" vertex="1"><mxGeometry x="410" y="20" width="400" height="130" as="geometry"><mxRectangle x="230" y="140" width="160" height="26" as="alternateBounds"/></mxGeometry></mxCell><mxCell id="aNG9JFLx2jUI2PPea5CB-3" value="+ Subscribe(publisher_port_num: int): void" style="text;align=left;verticalAlign=top;spacingLeft=4;spacingRight=4;overflow=hidden;rotatable=0;points=[[0,0.5],[1,0.5]];portConstraint=eastwest;rounded=0;shadow=0;html=0;fontSize=14;" parent="aNG9JFLx2jUI2PPea5CB-1" vertex="1"><mxGeometry y="26" width="400" height="26" as="geometry"/></mxCell><mxCell id="aNG9JFLx2jUI2PPea5CB-4" value="+ UnSubscribe(): void" style="text;align=left;verticalAlign=top;spacingLeft=4;spacingRight=4;overflow=hidden;rotatable=0;points=[[0,0.5],[1,0.5]];portConstraint=eastwest;rounded=0;shadow=0;html=0;fontSize=14;" parent="aNG9JFLx2jUI2PPea5CB-1" vertex="1"><mxGeometry y="52" width="400" height="32" as="geometry"/></mxCell><mxCell id="aNG9JFLx2jUI2PPea5CB-10" value="" style="endArrow=block;dashed=1;endFill=0;endSize=12;html=1;rounded=0;startArrow=none;" parent="1" source="aNG9JFLx2jUI2PPea5CB-5" edge="1"><mxGeometry width="160" relative="1" as="geometry"><mxPoint x="560" y="240" as="sourcePoint"/><mxPoint x="600" y="140" as="targetPoint"/></mxGeometry></mxCell><mxCell id="aNG9JFLx2jUI2PPea5CB-11" value="" style="endArrow=none;dashed=1;endFill=0;endSize=12;html=1;rounded=0;" parent="1" target="aNG9JFLx2jUI2PPea5CB-5" edge="1"><mxGeometry width="160" relative="1" as="geometry"><mxPoint x="560" y="240" as="sourcePoint"/><mxPoint x="560" y="150" as="targetPoint"/></mxGeometry></mxCell><mxCell id="aNG9JFLx2jUI2PPea5CB-5" value="Subscriber" style="swimlane;fontStyle=2;align=center;verticalAlign=top;childLayout=stackLayout;horizontal=1;startSize=26;horizontalStack=0;resizeParent=1;resizeLast=0;collapsible=1;marginBottom=0;rounded=0;shadow=0;strokeWidth=1;" parent="1" vertex="1"><mxGeometry x="415" y="200" width="390" height="270" as="geometry"><mxRectangle x="50" y="400" width="160" height="26" as="alternateBounds"/></mxGeometry></mxCell><mxCell id="aNG9JFLx2jUI2PPea5CB-6" value="+ Subscriber( shape_types: List[Shape.Type],&#10;                       subscriber_port: int): none&#10;&#10;" style="text;align=left;verticalAlign=top;spacingLeft=4;spacingRight=4;overflow=hidden;rotatable=0;points=[[0,0.5],[1,0.5]];portConstraint=eastwest;fontSize=14;" parent="aNG9JFLx2jUI2PPea5CB-5" vertex="1"><mxGeometry y="26" width="390" height="44" as="geometry"/></mxCell><mxCell id="aNG9JFLx2jUI2PPea5CB-7" value="+ ~Subscriber()" style="text;align=left;verticalAlign=top;spacingLeft=4;spacingRight=4;overflow=hidden;rotatable=0;points=[[0,0.5],[1,0.5]];portConstraint=eastwest;fontSize=14;" parent="aNG9JFLx2jUI2PPea5CB-5" vertex="1"><mxGeometry y="70" width="390" height="20" as="geometry"/></mxCell><mxCell id="aNG9JFLx2jUI2PPea5CB-8" value="" style="line;html=1;strokeWidth=1;align=left;verticalAlign=middle;spacingTop=-1;spacingLeft=3;spacingRight=3;rotatable=0;labelPosition=right;points=[];portConstraint=eastwest;" parent="aNG9JFLx2jUI2PPea5CB-5" vertex="1"><mxGeometry y="90" width="390" height="30" as="geometry"/></mxCell><mxCell id="aNG9JFLx2jUI2PPea5CB-9" value="- _shape_list: List&#10;- _publisher_address: List( for the phase 2)&#10;- _sub_is_running: bool&#10;- _thread: threading&#10;- _sock_fd: socket&#10;- _subscriber_port: int&#10;- send_request" style="text;align=left;verticalAlign=top;spacingLeft=4;spacingRight=4;overflow=hidden;rotatable=0;points=[[0,0.5],[1,0.5]];portConstraint=eastwest;fontSize=14;" parent="aNG9JFLx2jUI2PPea5CB-5" vertex="1"><mxGeometry y="120" width="390" height="150" as="geometry"/></mxCell></root></mxGraphModel></diagram></mxfile>